<svg xmlns="http://www.w3.org/2000/svg" viewBox="0 0 420 260" role="img" aria-labelledby="title desc">
  <title id="title">Golfball på verksted</title>
  <desc id="desc">En blid golfball med hjelm og verktøy.</desc>
  <rect width="420" height="260" rx="28" fill="#e0f2fe"/>
  <path d="M57 204c50-30 91-28 141-6 55 25 109 20 161-16" fill="none" stroke="#0f766e" stroke-width="16" stroke-linecap="round"/>
  <circle cx="205" cy="130" r="62" fill="#fff" stroke="#0f172a" stroke-width="5"/>
  <g fill="#dbeafe">
    <circle cx="176" cy="105" r="7"/>
    <circle cx="205" cy="96" r="7"/>
    <circle cx="232" cy="109" r="7"/>
    <circle cx="182" cy="139" r="7"/>
    <circle cx="222" cy="144" r="7"/>
  </g>
  <path d="M153 87c11-34 91-34 103 0" fill="#facc15" stroke="#0f172a" stroke-width="5"/>
  <path d="M143 87h123" stroke="#0f172a" stroke-width="7" stroke-linecap="round"/>
  <circle cx="184" cy="129" r="6" fill="#0f172a"/>
  <circle cx="226" cy="129" r="6" fill="#0f172a"/>
  <path d="M184 158c16 13 35 13 51 0" fill="none" stroke="#0f172a" stroke-width="5" stroke-linecap="round"/>
  <path d="M278 75l56-38 15 16-43 51" fill="#94a3b8" stroke="#0f172a" stroke-width="5" stroke-linejoin="round"/>
  <path d="M307 104l51-43 16 15-38 56" fill="#cbd5e1" stroke="#0f172a" stroke-width="5" stroke-linejoin="round"/>
  <path d="M102 87l-34-34" stroke="#0f172a" stroke-width="7" stroke-linecap="round"/>
  <path d="M67 52l-19-19" stroke="#64748b" stroke-width="13" stroke-linecap="round"/>
  <path d="M95 87l20-20" stroke="#0f172a" stroke-width="7" stroke-linecap="round"/>
  <text x="210" y="238" text-anchor="middle" font-family="Arial, sans-serif" font-size="22" font-weight="700" fill="#0f172a">Pusser opp svingen...</text>
</svg>
